<svg xmlns="http://www.w3.org/2000/svg" xmlns:xlink="http://www.w3.org/1999/xlink" width="200" zoomAndPan="magnify" viewBox="0 0 150 149.999998" height="200" preserveAspectRatio="xMidYMid meet" version="1.0"><defs><g/><clipPath id="75959ae438"><path d="M 0 0 L 150 0 L 150 150 L 0 150 Z M 0 0 " clip-rule="nonzero"/></clipPath><clipPath id="fe87840038"><path d="M 75 150 C 54.976562 150 36.121094 142.207031 21.972656 128.027344 C 7.792969 113.878906 0 95.023438 0 75 C 0 54.976562 7.792969 36.121094 21.972656 21.972656 C 36.121094 7.792969 54.976562 0 75 0 C 95.023438 0 113.878906 7.792969 128.027344 21.972656 C 142.207031 36.152344 150 54.976562 150 75 C 150 95.023438 142.207031 113.878906 128.027344 128.027344 C 113.878906 142.207031 95.023438 150 75 150 Z M 75 4.496094 C 56.175781 4.496094 38.460938 11.839844 25.148438 25.148438 C 11.839844 38.460938 4.496094 56.175781 4.496094 75 C 4.496094 93.824219 11.839844 111.539062 25.148438 124.851562 C 38.460938 138.160156 56.175781 145.503906 75 145.503906 C 93.824219 145.503906 111.539062 138.160156 124.851562 124.851562 C 138.160156 111.539062 145.503906 93.824219 145.503906 75 C 145.503906 56.175781 138.160156 38.460938 124.851562 25.148438 C 111.539062 11.839844 93.824219 4.496094 75 4.496094 Z M 75 4.496094 " clip-rule="nonzero"/></clipPath><clipPath id="78a7c9cd2e"><path d="M 0 0 L 150 0 L 150 150 L 0 150 Z M 0 0 " clip-rule="nonzero"/></clipPath><clipPath id="e9d1b94604"><path d="M 75 150 C 54.976562 150 36.121094 142.207031 21.972656 128.027344 C 7.792969 113.878906 0 95.023438 0 75 C 0 54.976562 7.792969 36.121094 21.972656 21.972656 C 36.121094 7.792969 54.976562 0 75 0 C 95.023438 0 113.878906 7.792969 128.027344 21.972656 C 142.207031 36.152344 150 54.976562 150 75 C 150 95.023438 142.207031 113.878906 128.027344 128.027344 C 113.878906 142.207031 95.023438 150 75 150 Z M 75 4.496094 C 56.175781 4.496094 38.460938 11.839844 25.148438 25.148438 C 11.839844 38.460938 4.496094 56.175781 4.496094 75 C 4.496094 93.824219 11.839844 111.539062 25.148438 124.851562 C 38.460938 138.160156 56.175781 145.503906 75 145.503906 C 93.824219 145.503906 111.539062 138.160156 124.851562 124.851562 C 138.160156 111.539062 145.503906 93.824219 145.503906 75 C 145.503906 56.175781 138.160156 38.460938 124.851562 25.148438 C 111.539062 11.839844 93.824219 4.496094 75 4.496094 Z M 75 4.496094 " clip-rule="nonzero"/></clipPath><clipPath id="b49aa7f6bc"><rect x="0" width="150" y="0" height="150"/></clipPath><clipPath id="5f9f2fb8fc"><rect x="0" width="39" y="0" height="65"/></clipPath><clipPath id="6d3beba6cb"><path d="M 0.0390625 12 L 35 12 L 35 50 L 0.0390625 50 Z M 0.0390625 12 " clip-rule="nonzero"/></clipPath><clipPath id="b306d56e83"><rect x="0" width="42" y="0" height="65"/></clipPath><clipPath id="7bfc9cbbac"><rect x="0" width="150" y="0" height="150"/></clipPath></defs><rect x="-15" width="180" fill="#ffffff" y="-15" height="179.999997" fill-opacity="1"/><rect x="-15" width="180" fill="#26215c" y="-15" height="179.999997" fill-opacity="1"/><g transform="matrix(1, 0, 0, 1, 0, -0.000000000000007527)"><g clip-path="url(#7bfc9cbbac)"><g clip-path="url(#75959ae438)"><g clip-path="url(#fe87840038)"><g transform="matrix(1, 0, 0, 1, 0, -0.000000000000007527)"><g clip-path="url(#b49aa7f6bc)"><g clip-path="url(#78a7c9cd2e)"><g clip-path="url(#e9d1b94604)"><rect x="-54.6" width="259.2" fill="#afa9ec" y="-54.599999" height="259.199996" fill-opacity="1"/></g></g></g></g></g></g><g transform="matrix(1, 0, 0, 1, 29, 42)"><g clip-path="url(#5f9f2fb8fc)"><g fill="#afa9ec" fill-opacity="1"><g transform="translate(1.372534, 49.972193)"><g><path d="M 27.15625 -5.34375 L 27.15625 0 L 4.546875 0 L 4.546875 -37.421875 L 27.09375 -37.421875 L 27.09375 -32.078125 L 9.953125 -32.078125 L 9.953125 -21.640625 L 26.71875 -21.640625 L 26.71875 -16.25 L 9.953125 -16.25 L 9.953125 -5.34375 Z M 27.15625 -5.34375 "/></g></g></g></g></g><g transform="matrix(1, 0, 0, 1, 89, 42)"><g clip-path="url(#b306d56e83)"><g clip-path="url(#6d3beba6cb)"><g fill="#afa9ec" fill-opacity="1"><g transform="translate(1.114122, 49.972193)"><g><path d="M 9.15625 -9.359375 L 5.5625 0 L -0.21875 0 L 14.65625 -37.515625 L 18.578125 -37.515625 L 33.453125 0 L 27.734375 0 L 24.1875 -9.359375 Z M 22.234375 -14.390625 L 16.671875 -29 L 11.109375 -14.390625 Z M 22.234375 -14.390625 "/></g></g></g></g></g></g><path stroke-linecap="butt" transform="matrix(0, -1.759912, 1.759912, 0, 72.356555, 104.987252)" fill="none" stroke-linejoin="miter" d="M -0.000584901 1.499813 L 34.083147 1.499813 " stroke="#afa9ec" stroke-width="3" stroke-opacity="1" stroke-miterlimit="4"/></g></g></svg>